<?xml version="1.0" standalone="no"?>
<!DOCTYPE svg PUBLIC "-//W3C//DTD SVG 20010904//EN"
 "http://www.w3.org/TR/2001/REC-SVG-20010904/DTD/svg10.dtd">
<svg version="1.0" xmlns="http://www.w3.org/2000/svg"
 width="900.000000pt" height="885.000000pt" viewBox="0 0 900.000000 885.000000"
 preserveAspectRatio="xMidYMid meet">
<metadata>
Created by potrace 1.10, written by Peter Selinger 2001-2011
</metadata>
<g transform="translate(0.000000,885.000000) scale(0.100000,-0.100000)"
fill="#000000" stroke="none">
<path d="M4426 7327 c-7 -12 -20 -34 -27 -49 -38 -74 -74 -144 -79 -148 -3 -3
-24 -43 -48 -90 -24 -47 -54 -105 -67 -130 -14 -25 -25 -50 -25 -57 0 -7 -4
-13 -9 -13 -5 0 -12 -13 -16 -30 -4 -16 -10 -30 -15 -30 -4 0 -11 -12 -14 -26
-4 -14 -11 -31 -17 -37 -13 -16 -204 -393 -358 -709 -29 -59 -51 -116 -49
-125 5 -26 49 -28 100 -5 24 11 66 27 93 37 28 9 57 20 65 25 9 4 30 11 49 15
18 4 44 13 59 21 15 8 46 14 69 14 35 0 50 -7 80 -34 21 -18 49 -39 63 -46 36
-18 134 -83 143 -95 4 -5 6 -39 5 -75 l-3 -65 -94 -8 c-52 -4 -99 -11 -105
-16 -6 -5 -32 -12 -58 -15 -26 -4 -50 -11 -53 -15 -2 -5 -21 -12 -40 -15 -19
-4 -35 -11 -35 -15 0 -5 -11 -12 -25 -15 -27 -7 -121 -61 -143 -83 -26 -26
-44 -17 -85 43 -15 22 -35 49 -45 60 -9 11 -28 36 -42 55 -24 35 -39 54 -147
187 l-53 65 0 111 c-1 96 -16 206 -33 233 -3 4 -27 19 -54 33 -26 14 -50 28
-53 31 -3 4 -25 17 -50 30 -25 13 -47 25 -50 28 -3 4 -27 17 -55 30 -27 13
-76 41 -107 62 -32 22 -62 39 -67 39 -20 0 -21 -41 -1 -84 11 -25 20 -56 20
-71 0 -14 4 -33 10 -43 5 -9 14 -37 19 -62 19 -87 32 -134 40 -145 5 -5 12
-29 16 -52 7 -47 44 -93 74 -93 11 0 22 -4 26 -9 3 -5 20 -13 37 -17 18 -3 39
-10 48 -14 8 -4 47 -18 87 -30 l72 -22 97 -130 c54 -72 103 -135 109 -142 29
-30 105 -134 105 -143 0 -6 -18 -23 -40 -38 -90 -62 -215 -226 -270 -353 -12
-26 -25 -55 -30 -64 -6 -10 -10 -23 -10 -29 0 -6 -6 -25 -14 -42 -8 -18 -20
-54 -26 -82 -6 -27 -15 -68 -20 -90 -5 -22 -9 -81 -10 -131 0 -102 -2 -104
-68 -104 -48 0 -51 3 -103 80 -68 99 -92 132 -117 160 -12 14 -25 36 -29 48
-7 29 22 217 46 302 6 19 20 69 31 110 26 89 49 159 60 180 4 9 11 31 15 50 4
19 14 44 22 56 7 12 11 29 7 38 -10 27 -51 18 -117 -27 -34 -24 -125 -81 -202
-127 -77 -46 -141 -87 -143 -92 -2 -4 -9 -8 -16 -8 -7 0 -31 -13 -52 -28 -21
-15 -79 -52 -129 -82 -49 -29 -92 -56 -95 -59 -3 -3 -14 -11 -25 -18 -124 -75
-161 -98 -163 -105 -2 -4 -10 -8 -17 -8 -8 0 -20 -6 -27 -13 -7 -7 -51 -37
-98 -65 -47 -29 -130 -81 -185 -116 -55 -35 -143 -90 -195 -122 -52 -31 -97
-60 -100 -63 -10 -12 -69 -51 -77 -51 -4 0 -21 -10 -37 -23 -25 -20 -27 -26
-16 -43 6 -10 31 -28 54 -38 41 -20 89 -50 114 -73 7 -7 19 -13 27 -13 7 0 15
-4 17 -8 2 -7 758 -465 931 -566 18 -10 114 -67 214 -127 99 -60 186 -109 192
-109 6 0 11 -4 11 -8 0 -5 20 -19 45 -31 24 -12 47 -26 50 -32 4 -5 19 -9 36
-9 33 0 38 20 15 67 -8 15 -22 46 -32 68 -9 22 -20 47 -24 55 -4 9 -11 31 -15
50 -4 19 -11 41 -16 50 -13 24 -49 139 -49 155 0 8 -4 23 -10 33 -5 9 -14 42
-19 72 -5 30 -15 76 -22 101 l-12 45 52 70 c29 38 75 104 103 147 l50 78 60
-3 60 -3 3 -81 c1 -44 7 -89 12 -100 6 -10 14 -40 17 -66 4 -26 11 -50 17 -53
5 -4 9 -13 9 -21 0 -24 69 -176 83 -182 4 -2 7 -8 7 -13 0 -14 68 -108 114
-158 61 -67 68 -73 114 -111 23 -19 42 -38 42 -44 0 -5 -35 -54 -77 -110 -94
-123 -87 -113 -123 -156 -16 -19 -30 -38 -30 -41 0 -3 -10 -17 -21 -30 -12
-13 -29 -35 -38 -49 -9 -14 -23 -33 -31 -43 -18 -22 -91 -57 -119 -57 -11 0
-22 -4 -26 -9 -3 -5 -20 -13 -37 -17 -18 -3 -39 -10 -48 -15 -8 -5 -35 -17
-60 -28 -56 -24 -63 -40 -101 -211 -6 -25 -13 -52 -16 -60 -4 -8 -12 -37 -19
-65 -10 -44 -25 -94 -49 -172 -6 -20 -4 -23 17 -23 13 0 29 5 35 11 13 13 26
20 110 65 143 76 198 107 201 115 2 5 9 9 16 9 7 0 23 9 36 20 13 11 26 20 30
20 14 0 30 106 30 203 1 57 7 118 14 138 10 30 72 117 97 139 3 3 61 78 128
168 67 89 126 162 131 162 5 0 29 -14 54 -31 55 -36 175 -99 192 -99 6 0 25
-7 40 -15 16 -8 40 -15 55 -15 14 0 30 -5 36 -11 7 -7 62 -14 127 -17 97 -4
116 -7 117 -21 3 -57 1 -192 -2 -194 -17 -14 -101 -75 -119 -87 -12 -8 -28
-20 -34 -25 -6 -6 -28 -21 -48 -35 -21 -14 -38 -28 -38 -32 0 -11 -78 -10 -84
1 -3 5 -27 12 -53 16 -27 4 -52 10 -58 15 -5 4 -26 11 -45 15 -19 4 -41 11
-50 16 -8 5 -37 18 -65 29 -27 12 -71 32 -96 45 -34 17 -50 20 -58 12 -19 -19
-12 -50 32 -134 23 -45 73 -144 112 -220 38 -76 72 -140 75 -143 6 -6 20 -32
105 -195 65 -124 121 -232 201 -383 26 -48 67 -127 93 -177 25 -49 48 -92 51
-95 3 -3 23 -41 45 -85 42 -84 62 -115 77 -115 4 0 20 26 34 58 15 31 29 59
33 62 3 3 24 41 46 85 22 44 44 84 48 90 8 10 123 235 249 485 40 80 76 147
79 150 4 3 10 16 14 30 4 14 10 27 14 30 3 3 27 48 52 100 25 52 83 170 128
261 98 199 97 231 -4 179 -22 -11 -43 -20 -48 -20 -8 0 -90 -34 -117 -49 -9
-5 -31 -12 -50 -16 -19 -4 -39 -11 -45 -15 -5 -4 -29 -11 -52 -15 -24 -4 -45
-11 -49 -16 -12 -20 -55 -1 -139 64 -5 4 -47 35 -92 68 l-83 60 0 99 c0 114
-8 106 110 114 76 4 160 22 174 36 6 6 17 10 24 10 21 0 158 67 219 107 29 19
57 32 63 28 6 -4 21 -23 34 -43 13 -21 33 -48 45 -61 11 -13 21 -27 21 -30 0
-3 12 -19 27 -35 14 -16 50 -60 80 -99 29 -39 68 -87 86 -106 62 -67 64 -75
71 -239 4 -84 12 -163 17 -175 9 -20 122 -92 249 -160 131 -70 166 -90 174
-98 15 -14 46 -11 52 6 3 8 -2 29 -11 47 -9 18 -20 53 -25 78 -16 81 -31 145
-40 165 -5 11 -12 36 -16 55 -3 19 -10 40 -14 45 -4 6 -11 29 -15 53 -5 34
-14 48 -43 67 -20 14 -42 25 -48 25 -7 0 -25 7 -40 15 -16 8 -37 15 -46 15 -9
0 -20 5 -23 10 -3 6 -16 10 -28 10 -12 0 -34 6 -48 14 -14 7 -36 16 -50 20
-13 3 -44 33 -69 67 -25 33 -52 68 -60 77 -9 9 -54 67 -100 127 -47 61 -91
116 -98 124 -7 8 -20 24 -28 37 -15 22 -13 26 73 111 49 48 110 120 135 158
55 84 118 204 118 226 0 8 4 19 9 25 20 23 45 127 69 294 7 44 8 45 46 48 61
5 84 -5 113 -51 16 -23 36 -51 45 -61 10 -11 30 -38 45 -60 15 -23 38 -53 51
-68 27 -29 27 -47 -1 -188 -33 -163 -118 -423 -167 -512 -6 -10 -10 -27 -10
-38 0 -32 41 -25 106 19 33 21 89 55 127 75 61 33 230 132 267 156 8 6 27 15
43 21 15 6 27 14 27 19 0 4 8 10 18 14 9 3 31 15 47 26 17 11 37 23 45 26 24
11 184 107 190 114 3 4 113 71 245 150 132 79 242 147 243 152 2 4 9 8 16 8 7
0 31 13 52 28 40 29 147 95 232 144 34 19 48 33 50 52 2 17 -2 26 -10 26 -8 0
-47 23 -88 52 -41 28 -109 72 -150 97 -41 24 -77 48 -80 51 -3 4 -36 26 -75
49 -38 24 -104 65 -145 92 -41 27 -82 52 -90 56 -8 4 -17 9 -20 13 -4 5 -123
79 -265 163 -11 7 -22 15 -25 18 -6 7 -440 269 -470 284 -11 5 -20 13 -20 17
0 5 -5 8 -11 8 -13 0 -178 98 -197 117 -18 17 -61 17 -68 -1 -3 -8 8 -43 24
-77 16 -35 33 -75 37 -89 4 -14 11 -29 15 -35 4 -5 17 -44 29 -85 13 -41 26
-84 31 -95 5 -11 14 -38 20 -60 11 -37 18 -68 51 -226 l12 -56 -64 -87 c-35
-47 -83 -113 -107 -147 l-43 -60 -57 3 -57 3 -7 80 c-9 112 -50 301 -69 319
-5 6 -9 17 -9 25 0 8 -14 44 -31 80 -64 133 -132 236 -206 310 -40 41 -73 82
-73 90 0 9 15 32 33 51 18 19 55 64 82 100 27 36 55 71 62 78 6 6 43 54 82
106 l71 94 72 22 c40 12 81 26 90 31 10 5 23 9 29 9 11 0 60 20 109 43 15 8
31 30 42 62 18 48 23 66 48 165 7 25 14 52 18 60 3 8 11 38 18 65 6 28 19 76
28 108 24 86 6 99 -66 47 -22 -16 -47 -30 -55 -30 -7 0 -13 -4 -13 -9 0 -5
-10 -13 -22 -17 -23 -7 -120 -63 -128 -75 -3 -3 -15 -9 -27 -13 -13 -4 -23
-12 -23 -17 0 -5 -4 -9 -9 -9 -13 0 -98 -58 -107 -72 -4 -5 -10 -54 -15 -107
-24 -258 -17 -229 -73 -296 -79 -94 -120 -146 -130 -164 -5 -9 -12 -18 -16
-21 -3 -3 -30 -36 -58 -75 -29 -38 -60 -81 -71 -94 l-19 -24 -38 30 c-44 34
-242 133 -266 133 -9 0 -19 4 -23 9 -3 6 -27 13 -53 17 -26 3 -52 11 -59 16
-6 5 -58 12 -115 16 l-103 7 -3 62 c-3 72 5 93 45 113 29 16 103 65 187 125
31 23 55 33 65 29 9 -3 36 -11 61 -16 25 -6 50 -14 55 -18 6 -4 25 -11 43 -15
18 -4 45 -13 60 -21 15 -8 35 -14 44 -14 9 0 20 -4 23 -10 3 -5 14 -10 23 -10
10 0 34 -9 55 -20 20 -11 48 -20 61 -20 26 0 53 24 38 34 -6 3 -13 18 -17 33
-3 15 -10 30 -13 33 -4 3 -40 70 -80 150 -40 80 -89 174 -108 210 -45 83 -85
157 -294 555 -42 80 -110 207 -163 305 -10 19 -27 49 -37 65 -11 17 -26 44
-35 62 -21 41 -41 48 -59 20z m132 -244 c118 -235 176 -347 182 -353 3 -3 23
-41 45 -85 22 -44 43 -82 46 -85 4 -3 10 -16 14 -30 4 -14 10 -27 14 -30 3 -3
20 -32 37 -65 58 -114 109 -210 114 -215 6 -6 27 -44 61 -107 24 -46 20 -64
-11 -45 -11 7 -25 12 -32 12 -7 0 -25 6 -40 14 -15 8 -41 17 -59 21 -19 4 -40
11 -49 16 -15 8 -74 19 -215 40 -38 6 -96 8 -128 5 -41 -4 -59 -2 -62 7 -7 20
-11 1057 -3 1057 3 0 42 -71 86 -157z m-134 -384 l-2 -523 -95 -2 c-52 -1
-110 -7 -128 -13 -19 -6 -55 -13 -81 -16 -26 -4 -50 -10 -53 -16 -4 -5 -17 -9
-29 -9 -26 0 -154 -46 -174 -62 -9 -8 -16 -8 -25 1 -9 9 -8 19 7 44 31 53 103
190 229 437 246 483 327 645 327 661 0 18 10 30 20 24 3 -2 5 -239 4 -526z
m-1284 -299 c0 -6 8 -14 17 -17 10 -4 56 -32 103 -64 47 -31 104 -67 126 -78
43 -23 54 -42 54 -99 0 -18 7 -62 16 -98 19 -75 9 -101 -22 -58 -62 88 -183
245 -215 279 -57 61 -109 132 -102 139 10 9 23 7 23 -4z m2730 -1 c0 -10 -60
-91 -80 -109 -3 -3 -30 -36 -60 -75 -30 -38 -57 -72 -61 -75 -3 -3 -29 -38
-57 -78 -28 -41 -60 -81 -73 -90 -21 -15 -22 -15 -15 9 4 13 13 65 20 114 8
50 17 98 21 107 4 10 35 35 69 55 33 20 66 41 71 46 21 18 150 106 158 106 4
1 7 -4 7 -10z m-2670 -179 c35 -47 67 -87 70 -90 4 -3 11 -12 16 -21 9 -16 56
-74 117 -142 31 -35 37 -62 10 -49 -54 27 -91 42 -116 48 -15 3 -30 10 -33 15
-3 5 -14 9 -24 9 -28 0 -57 36 -64 79 -3 21 -13 51 -21 67 -8 16 -15 38 -15
49 -1 11 -7 31 -15 45 -8 14 -14 35 -15 47 0 12 -7 29 -16 37 -8 9 -12 21 -9
26 9 14 35 -14 115 -120z m2700 109 c0 -11 -6 -33 -14 -47 -16 -33 -46 -125
-46 -143 0 -8 -6 -26 -14 -41 -8 -15 -17 -41 -21 -58 -5 -21 -16 -35 -33 -42
-15 -6 -36 -14 -47 -19 -11 -4 -31 -11 -45 -15 -14 -3 -32 -12 -40 -19 -8 -7
-25 -15 -38 -18 -37 -9 -37 17 0 56 40 43 45 50 169 213 54 73 99 137 99 143
0 6 7 11 15 11 9 0 15 -9 15 -21z m-1475 -219 c0 -22 -6 -25 -85 -41 -47 -10
-101 -18 -120 -18 -44 -1 -165 -29 -207 -47 -17 -8 -40 -14 -51 -14 -12 0 -23
-4 -27 -9 -3 -5 -18 -12 -34 -16 -16 -3 -46 -15 -67 -26 -48 -24 -64 -24 -64
1 0 24 47 69 80 76 14 3 32 9 40 13 8 4 49 18 90 30 41 12 89 26 105 31 17 5
62 14 100 21 39 6 88 14 110 19 22 4 60 7 85 6 41 -1 45 -3 45 -26z m220 19
c28 -5 79 -14 115 -19 36 -6 79 -15 95 -20 17 -5 57 -17 90 -25 33 -9 73 -23
88 -31 16 -8 36 -14 46 -14 9 0 27 -7 39 -16 23 -16 57 -72 49 -80 -2 -3 -24
2 -48 11 -46 17 -262 90 -315 106 -17 5 -53 9 -81 9 -27 0 -72 7 -99 15 -27 8
-73 15 -102 15 -54 0 -71 13 -58 45 6 18 99 20 181 4z m-49 -98 c22 -1 49 -7
60 -15 18 -14 18 -15 -6 -25 -14 -5 -63 -35 -110 -65 -46 -31 -89 -56 -94 -56
-14 0 -206 131 -206 141 0 5 24 10 53 10 28 1 66 4 82 8 17 4 64 6 105 5 41
-1 93 -3 116 -3z m48 -420 c6 -5 35 -12 63 -16 29 -4 55 -11 58 -15 3 -5 23
-11 45 -15 22 -4 40 -11 40 -16 0 -5 5 -9 11 -9 17 0 162 -70 182 -87 21 -20
22 -52 2 -67 -15 -11 -27 -55 -50 -191 -18 -109 -32 -161 -52 -193 -25 -41
-133 -143 -144 -137 -5 4 -9 21 -9 39 0 51 -59 82 -108 57 -44 -23 -110 -51
-118 -51 -4 0 -45 -38 -91 -85 -70 -72 -88 -85 -115 -85 -46 0 -148 20 -183
35 -16 8 -40 16 -52 20 -13 3 -23 10 -23 15 0 5 -17 12 -37 15 -39 6 -79 15
-168 40 -69 19 -142 35 -195 44 -25 4 -54 12 -65 17 -70 36 -88 44 -101 44
-29 0 -26 46 5 97 17 28 31 53 31 57 0 4 5 12 10 19 6 7 32 41 59 77 49 66
151 167 208 207 33 24 128 77 178 100 17 8 38 18 47 24 10 5 22 9 27 9 5 0 22
5 38 12 30 13 119 34 198 48 59 10 294 3 309 -9z m-1478 -146 c4 -8 -1 -26
-10 -40 -9 -13 -16 -30 -16 -37 0 -7 -6 -25 -14 -40 -8 -15 -17 -42 -21 -60
-4 -18 -10 -37 -14 -43 -6 -11 -26 -91 -41 -168 -5 -26 -13 -62 -19 -80 -16
-49 -41 -259 -45 -371 -2 -87 -5 -101 -23 -113 -17 -12 -23 -11 -41 4 -19 16
-20 23 -12 58 5 22 14 96 20 164 5 68 13 127 16 133 3 5 12 48 19 96 14 92 32
172 59 262 10 30 21 71 25 90 14 60 42 114 69 137 32 27 41 28 48 8z m2634 -7
c30 -22 70 -86 70 -112 0 -8 7 -27 15 -42 8 -16 15 -36 15 -45 0 -9 7 -30 15
-45 8 -16 15 -38 15 -49 0 -12 4 -25 9 -30 10 -10 25 -76 42 -180 6 -33 15
-74 20 -92 5 -17 14 -92 19 -166 5 -73 10 -138 11 -143 4 -22 -2 -32 -23 -37
-40 -11 -48 8 -48 109 0 52 -4 113 -10 136 -5 24 -14 77 -19 118 -11 84 -33
190 -42 205 -4 6 -10 26 -14 45 -8 40 -32 117 -46 142 -5 10 -9 23 -9 29 0 12
-28 76 -57 132 -12 24 -11 47 3 47 3 0 18 -10 34 -22z m-581 -155 c89 -96 158
-207 216 -348 9 -22 20 -49 25 -60 27 -61 75 -368 65 -410 -3 -11 -12 -65 -19
-120 -15 -106 -30 -177 -46 -210 -22 -49 -50 -114 -50 -119 0 -8 -93 -159
-115 -186 -55 -69 -228 -230 -247 -230 -4 0 -37 -18 -73 -40 -36 -22 -69 -40
-73 -40 -4 0 -19 -6 -34 -14 -15 -8 -42 -17 -60 -21 -18 -4 -37 -11 -43 -15
-5 -4 -30 -11 -55 -15 -25 -4 -49 -11 -55 -15 -17 -13 -79 -20 -95 -10 -12 8
-12 11 3 28 9 10 17 25 17 33 0 8 6 26 14 40 7 14 16 37 20 52 3 15 38 79 77
144 70 116 79 140 96 270 8 63 -22 133 -87 202 -38 40 -52 77 -59 150 -8 74
-7 77 18 98 14 12 32 22 40 23 8 0 28 5 45 11 51 18 114 -8 141 -60 32 -58 44
-71 70 -71 34 0 48 24 41 67 -4 21 -8 51 -10 66 -3 32 -20 47 -53 47 -26 0
-31 -18 -8 -26 8 -4 15 -14 15 -23 0 -9 7 -26 15 -38 10 -15 12 -24 4 -28 -11
-7 -49 22 -49 37 0 11 -50 58 -61 58 -22 0 -6 18 24 27 l32 10 -45 6 c-45 6
-170 20 -329 37 -46 5 -89 14 -95 20 -5 5 -21 10 -35 10 -15 1 -37 7 -51 15
-14 8 -37 14 -52 15 -15 0 -33 7 -42 15 -8 8 -32 15 -56 15 -27 0 -43 5 -46
15 -8 20 -118 22 -112 3 3 -7 21 -16 42 -19 20 -3 42 -11 49 -18 6 -6 27 -11
47 -11 19 0 44 -7 54 -15 11 -8 34 -15 50 -15 17 0 40 -7 50 -15 11 -8 37 -15
57 -15 43 0 56 -12 34 -30 -19 -16 -174 -5 -220 14 -16 7 -50 22 -75 32 -25
10 -61 30 -80 44 -19 15 -43 30 -52 33 -27 9 -22 27 7 27 33 0 32 18 -2 31
-24 9 -26 12 -11 20 11 6 31 4 60 -6 24 -8 53 -15 64 -15 12 0 27 -7 34 -15 7
-8 29 -15 49 -15 21 0 46 -7 57 -15 13 -10 43 -14 94 -14 90 1 130 19 142 66
8 31 80 103 102 103 6 0 29 9 50 21 24 12 52 19 74 17 37 -3 37 -3 40 -55 2
-40 -1 -56 -15 -68 -120 -106 -118 -103 -100 -111 26 -10 59 11 120 74 28 30
86 89 127 132 114 116 143 194 167 435 3 34 11 55 25 66 29 23 62 5 137 -78z
m-2199 65 c0 -13 -6 -35 -14 -50 -8 -14 -17 -45 -21 -67 -4 -23 -10 -43 -15
-46 -5 -3 -11 -24 -15 -48 -3 -23 -10 -53 -16 -67 -18 -48 -57 -322 -67 -468
l-7 -102 -580 -4 c-319 -2 -597 -7 -618 -11 -35 -7 -37 -6 -30 13 5 12 39 37
78 57 38 20 72 40 75 44 3 4 67 45 144 92 76 46 149 91 161 99 13 8 45 28 72
44 26 16 50 32 53 35 3 4 16 12 30 19 14 7 59 35 100 62 41 27 136 86 210 132
74 45 137 84 140 88 3 3 34 24 70 45 69 41 168 105 210 136 33 24 40 23 40 -3z
m2919 8 c32 -27 121 -86 131 -86 5 0 10 -4 10 -10 0 -5 6 -10 14 -10 8 0 21
-6 28 -13 7 -7 78 -53 158 -101 80 -48 154 -93 165 -99 10 -7 25 -18 33 -24 7
-7 19 -13 27 -13 7 0 15 -4 17 -8 2 -5 44 -32 93 -62 50 -30 96 -60 103 -67 7
-7 18 -13 23 -13 5 0 15 -5 22 -11 12 -11 71 -48 237 -150 47 -29 110 -70 141
-91 31 -21 78 -47 104 -59 28 -13 44 -24 38 -30 -5 -5 -256 -8 -608 -7 l-599
3 -1 60 c-1 84 -24 295 -35 325 -4 14 -11 45 -15 69 -3 25 -12 65 -20 90 -7
25 -21 73 -30 106 -18 65 -37 114 -61 158 -15 26 -13 57 2 57 4 0 15 -6 23
-14z m-2379 -454 c0 -22 -52 -10 -60 14 -8 19 -6 20 26 10 19 -6 34 -17 34
-24z m50 -22 c12 -8 9 -10 -12 -10 -16 0 -28 5 -28 10 0 13 20 13 40 0z m-110
-10 c0 -5 6 -10 14 -10 7 0 19 -7 26 -15 7 -8 27 -15 44 -15 17 0 44 -7 60
-15 15 -8 37 -15 48 -15 25 0 228 -99 228 -111 0 -5 5 -9 10 -9 12 0 73 -41
78 -52 2 -5 9 -8 15 -8 6 0 18 -6 26 -14 40 -37 139 -75 211 -82 41 -4 69 -9
61 -12 -7 -2 -22 -13 -32 -23 -11 -11 -29 -19 -41 -19 -13 0 -41 -7 -63 -15
-22 -8 -54 -14 -70 -15 -35 0 -85 -41 -85 -70 0 -27 27 -50 60 -50 41 0 44
-13 10 -38 -37 -28 -39 -27 -73 7 -32 32 -72 44 -100 29 -16 -8 -18 -17 -12
-59 6 -46 5 -49 -18 -58 -32 -13 -69 -65 -65 -93 5 -34 35 -33 78 1 22 17 44
31 50 31 19 0 23 -29 6 -45 -9 -9 -16 -25 -16 -34 0 -10 -7 -24 -15 -31 -8 -7
-15 -20 -15 -30 0 -10 -7 -23 -15 -30 -17 -14 -20 -66 -5 -75 17 -10 47 4 65
31 15 23 15 27 1 43 -20 22 -21 51 -1 51 10 0 15 10 15 27 0 14 6 34 14 42 24
28 29 76 10 96 -16 15 -18 15 -26 1 -10 -18 -48 -22 -48 -6 0 6 11 15 25 20
28 11 33 41 10 60 -10 9 -12 17 -6 23 6 6 24 -1 49 -22 22 -17 49 -31 60 -31
29 0 90 38 97 60 10 31 -12 60 -45 60 -68 0 -35 50 38 58 26 2 52 8 57 12 6 4
25 11 43 15 18 4 45 13 60 21 15 8 33 14 40 14 7 0 20 4 30 10 9 5 30 14 45
20 21 8 27 15 25 32 -3 21 1 23 37 22 73 -1 112 -13 118 -35 5 -19 7 -19 43
-4 37 15 79 12 69 -6 -4 -5 -17 -9 -31 -9 -14 0 -27 -7 -30 -15 -4 -8 -15 -15
-26 -15 -12 0 -27 -8 -34 -17 -10 -15 -15 -16 -26 -5 -10 10 -9 14 10 18 12 4
22 13 22 20 0 19 -34 18 -50 -1 -7 -8 -16 -15 -20 -15 -18 0 -132 -108 -162
-153 -16 -23 -24 -26 -80 -24 -57 2 -66 -1 -96 -28 -18 -16 -48 -52 -67 -81
-28 -42 -35 -62 -35 -102 0 -32 -6 -56 -15 -66 -8 -8 -15 -31 -15 -50 0 -25
-4 -36 -15 -36 -11 0 -15 11 -15 40 0 29 4 40 15 40 10 0 15 11 15 35 0 32 -2
35 -30 35 -25 0 -30 -4 -30 -25 0 -14 -7 -28 -15 -31 -8 -4 -15 -12 -15 -19 0
-7 7 -18 15 -25 20 -16 19 -66 -1 -74 -10 -4 -14 -16 -12 -38 5 -51 37 -49 80
4 34 41 57 112 73 221 3 20 10 37 15 37 6 0 10 6 10 13 0 7 20 35 44 62 l44
50 80 -3 c96 -3 146 -21 190 -71 56 -62 65 -91 53 -174 -11 -84 -30 -168 -41
-182 -4 -5 -11 -26 -15 -45 -15 -72 -39 -145 -75 -220 -4 -9 -11 -30 -14 -48
-4 -17 -12 -34 -17 -37 -5 -4 -9 -14 -9 -25 0 -10 -6 -20 -12 -23 -24 -8 -206
26 -255 49 -17 7 -35 14 -40 14 -20 0 -190 93 -243 132 -57 44 -220 204 -220
217 0 4 -9 19 -20 32 -31 38 -34 42 -60 94 -14 28 -28 52 -32 53 -5 2 -8 11
-8 21 0 9 -6 25 -13 36 -21 31 -63 192 -79 302 -15 104 12 411 42 481 9 22 40
31 40 12z m362 -54 c18 -8 47 -18 63 -21 l30 -7 -26 -13 c-27 -15 -92 -5 -104
15 -4 6 -17 10 -30 10 -25 0 -39 12 -28 24 11 11 61 7 95 -8z m-794 -153 c16
-27 52 -77 80 -112 29 -35 52 -73 52 -83 0 -11 -19 -45 -43 -76 -24 -31 -54
-75 -67 -97 -26 -43 -40 -56 -54 -52 -10 3 -20 431 -11 454 7 20 11 17 43 -34z
m2855 -59 c-1 -54 -2 -152 -3 -216 0 -106 -2 -118 -18 -118 -17 0 -145 162
-157 200 -4 13 5 31 28 57 18 21 44 56 57 78 39 67 71 106 83 102 8 -3 11 -35
10 -103z m1381 -143 c6 -9 -24 -32 -73 -58 -69 -38 -647 -388 -649 -395 -2 -4
-8 -8 -12 -8 -5 0 -29 -13 -53 -30 -25 -16 -47 -30 -51 -30 -3 0 -22 -12 -43
-26 -21 -14 -47 -30 -58 -35 -11 -5 -33 -18 -50 -29 -16 -11 -41 -25 -55 -30
-13 -6 -27 -14 -30 -18 -7 -10 -41 -30 -70 -43 -13 -5 -27 -14 -30 -18 -3 -4
-45 -31 -95 -61 -49 -29 -98 -60 -107 -68 -16 -13 -18 -13 -24 2 -4 9 1 25 10
35 9 10 16 24 16 32 0 8 6 26 14 41 8 15 17 42 21 60 3 18 10 42 15 53 5 11
14 43 20 70 6 28 18 79 26 115 20 88 31 175 39 300 4 58 11 111 15 118 5 11
102 13 506 14 422 0 552 3 696 16 9 1 19 -2 22 -7z m-1286 -14 c12 -14 0 -227
-17 -305 -5 -26 -14 -72 -20 -102 -8 -50 -17 -89 -51 -220 -6 -25 -15 -49 -21
-54 -5 -6 -9 -19 -9 -30 0 -12 -7 -34 -15 -50 -8 -15 -15 -36 -15 -45 0 -27
-44 -91 -74 -107 -48 -24 -47 -19 24 151 47 114 95 313 111 460 5 50 14 100
19 113 6 13 10 56 10 97 0 40 3 80 6 89 7 19 37 21 52 3z m-3147 -89 c9 -119
28 -269 39 -298 5 -14 12 -49 15 -77 4 -29 11 -55 16 -59 5 -3 9 -14 9 -25 0
-21 33 -125 56 -176 8 -17 14 -36 14 -42 0 -7 7 -23 16 -36 22 -34 9 -49 -24
-26 -66 46 -124 81 -133 81 -5 0 -9 4 -9 9 0 5 -10 13 -22 17 -13 4 -25 10
-28 13 -8 12 -127 81 -138 81 -6 0 -12 4 -14 8 -4 11 -123 82 -136 82 -6 0
-12 4 -14 8 -4 11 -713 436 -790 475 -53 26 -65 37 -54 48 2 2 271 3 598 2
l593 -3 6 -82z m107 80 c5 -7 13 -58 15 -113 8 -142 49 -399 68 -430 4 -5 10
-26 14 -45 7 -39 30 -109 51 -157 8 -17 14 -35 14 -40 0 -4 11 -30 25 -58 22
-45 31 -75 22 -75 -2 0 -18 7 -36 16 -21 10 -39 31 -51 58 -41 93 -50 117 -50
130 0 8 -7 27 -15 42 -8 16 -15 38 -15 50 0 11 -4 24 -9 30 -5 5 -14 34 -20
64 -6 30 -18 89 -27 130 -8 41 -20 109 -25 150 -6 41 -17 111 -24 155 -14 87
-9 105 30 105 12 0 27 -6 33 -12z m1623 -106 c-2 -50 2 -70 20 -100 13 -20 26
-39 29 -42 4 -3 23 -27 43 -53 36 -47 37 -51 37 -133 0 -104 -17 -157 -94
-282 -31 -51 -56 -95 -56 -98 0 -3 -6 -20 -14 -37 -7 -18 -19 -56 -25 -86 -14
-68 -25 -81 -67 -81 -40 0 -52 15 -30 39 9 10 16 21 16 25 0 8 36 92 50 118 6
10 10 23 10 29 0 6 6 25 14 42 8 18 19 50 24 72 6 22 18 65 27 95 27 90 34
131 35 206 0 63 -3 74 -32 115 -48 68 -80 99 -100 99 -41 0 -32 32 25 87 75
72 92 69 88 -15z m-25 -1255 c33 -23 76 -53 97 -66 66 -41 48 -51 -113 -60
-63 -3 -150 -5 -192 -3 -70 3 -78 6 -78 23 0 11 8 23 18 26 9 4 52 33 96 65
43 32 86 58 96 58 10 0 44 -19 76 -43z m-1173 7 c3 -4 -12 -25 -33 -48 -22
-23 -92 -111 -156 -196 -64 -85 -120 -156 -125 -158 -14 -5 -11 33 5 70 15 33
35 98 55 174 13 49 46 94 68 94 15 0 80 27 133 56 28 15 43 17 53 8z m2215 -8
c34 -19 90 -42 120 -51 35 -10 59 -38 67 -76 3 -19 10 -43 15 -54 16 -38 42
-120 47 -150 3 -16 12 -38 20 -47 11 -12 12 -21 4 -35 -6 -10 -11 -13 -11 -6
0 7 -8 20 -18 30 -10 10 -50 61 -88 113 -39 52 -77 102 -85 110 -8 8 -32 37
-54 64 -21 27 -50 61 -62 74 -13 14 -23 29 -23 33 0 14 39 10 68 -5z m-431
-55 c-17 -25 -37 -43 -55 -47 -15 -3 -41 -12 -59 -20 -17 -8 -40 -14 -51 -14
-12 0 -23 -4 -26 -9 -4 -5 -25 -12 -49 -16 -23 -4 -50 -12 -60 -17 -10 -5 -39
-13 -65 -18 -26 -5 -69 -13 -97 -19 -27 -5 -85 -12 -127 -15 -71 -5 -78 -4
-88 15 -19 35 4 49 79 49 36 0 84 7 106 15 22 8 59 14 83 15 24 0 67 7 95 15
108 33 153 47 184 61 17 8 35 14 40 14 6 0 30 11 54 24 57 30 70 18 36 -33z
m-1350 23 c108 -47 166 -68 223 -80 19 -3 41 -10 50 -15 20 -11 167 -31 267
-36 61 -3 85 -9 97 -22 15 -16 15 -19 -2 -35 -17 -15 -31 -15 -142 -6 -68 6
-128 14 -133 17 -6 3 -37 12 -71 18 -34 7 -86 20 -116 29 -30 9 -73 21 -95 27
-22 6 -44 14 -50 20 -5 5 -17 9 -26 9 -22 0 -69 55 -69 81 0 24 -2 24 67 -7z
m-406 -76 c-7 -35 -15 -85 -18 -113 -4 -46 -33 -95 -54 -95 -7 0 -91 -49 -157
-92 -15 -10 -34 -21 -42 -25 -8 -4 -20 -14 -27 -22 -8 -12 -15 -13 -23 -5 -8
8 0 24 29 60 102 126 187 234 201 254 8 12 23 32 33 43 11 12 26 35 34 51 25
48 38 18 24 -56z m2171 -20 c42 -57 86 -114 98 -128 12 -14 31 -36 43 -50 12
-14 40 -47 62 -75 22 -27 47 -55 55 -62 13 -10 13 -12 -3 -18 -10 -5 -25 -1
-35 7 -18 16 -177 114 -220 137 -45 23 -62 43 -62 72 0 15 -4 39 -9 52 -14 36
-25 167 -14 167 5 0 43 -46 85 -102z m-462 -18 c0 -5 -16 -38 -34 -72 -19 -35
-102 -196 -183 -358 -81 -162 -150 -297 -154 -300 -12 -11 -219 -438 -219
-453 0 -17 -18 -33 -26 -24 -7 7 -6 1056 1 1067 3 5 18 9 33 8 40 -1 238 28
307 45 90 22 202 62 240 84 25 15 35 16 35 3z m-1272 -9 c46 -22 92 -41 140
-55 93 -29 122 -34 400 -74 l52 -7 4 -480 c2 -309 7 -497 15 -529 6 -27 9 -51
7 -54 -6 -6 -56 48 -56 60 0 5 -20 49 -44 96 -24 48 -65 130 -92 182 -26 52
-50 97 -53 100 -3 3 -32 57 -65 120 -32 63 -77 149 -99 190 -22 41 -59 111
-82 155 -61 117 -102 190 -130 235 -23 36 -32 70 -20 70 3 0 13 -4 23 -9z"/>
<path d="M5097 5325 c-4 -26 -7 -69 -7 -95 0 -50 -21 -135 -46 -183 -8 -16
-14 -34 -14 -42 0 -7 -7 -18 -15 -25 -8 -7 -15 -20 -15 -30 0 -10 -6 -23 -13
-29 -8 -6 -19 -35 -26 -64 -10 -44 -9 -60 4 -96 19 -55 8 -71 -47 -71 -21 0
-55 -7 -74 -15 -28 -11 -35 -19 -32 -37 3 -20 9 -23 48 -25 70 -2 164 -36 168
-61 2 -13 -5 -25 -19 -32 -17 -10 -19 -14 -8 -21 39 -24 89 5 89 52 -1 32 -34
54 -92 63 -38 6 -48 11 -48 27 0 13 7 19 23 19 52 0 72 39 45 90 -24 46 -23
100 3 158 12 26 24 49 28 52 10 8 39 72 56 122 19 57 25 244 9 272 -9 15 -12
11 -17 -29z"/>
</g>
</svg>
